{
	"asset":{
		"generator":"Khronos glTF Blender I/O v4.1.62",
		"version":"2.0"
	},
	"scene":0,
	"scenes":[
		{
			"name":"Scene",
			"nodes":[
				1
			]
		}
	],
	"nodes":[
		{
			"mesh":0,
			"name":"Cube_Prototype_Large_B.003"
		},
		{
			"children":[
				0
			],
			"mesh":1,
			"name":"Locker_Decorated"
		}
	],
	"materials":[
		{
			"name":"prototype_texture.034",
			"pbrMetallicRoughness":{
				"baseColorTexture":{
					"index":0
				},
				"metallicFactor":0,
				"roughnessFactor":0.4000000059604645
			}
		},
		{
			"name":"prototype_texture.036",
			"pbrMetallicRoughness":{
				"baseColorTexture":{
					"index":1
				},
				"metallicFactor":0,
				"roughnessFactor":0.4000000059604645
			}
		},
		{
			"name":"prototype_texture.025",
			"pbrMetallicRoughness":{
				"baseColorTexture":{
					"index":2
				},
				"metallicFactor":0,
				"roughnessFactor":0.4000000059604645
			}
		},
		{
			"name":"prototype_texture.029",
			"pbrMetallicRoughness":{
				"baseColorTexture":{
					"index":3
				},
				"metallicFactor":0,
				"roughnessFactor":0.4000000059604645
			}
		},
		{
			"name":"prototype_texture.028",
			"pbrMetallicRoughness":{
				"baseColorTexture":{
					"index":4
				},
				"metallicFactor":0,
				"roughnessFactor":0.4000000059604645
			}
		},
		{
			"name":"prototype_texture.026",
			"pbrMetallicRoughness":{
				"baseColorTexture":{
					"index":5
				},
				"metallicFactor":0,
				"roughnessFactor":0.4000000059604645
			}
		},
		{
			"name":"prototype_texture.024",
			"pbrMetallicRoughness":{
				"baseColorTexture":{
					"index":6
				},
				"metallicFactor":0,
				"roughnessFactor":0.4000000059604645
			}
		}
	],
	"meshes":[
		{
			"name":"Cube.006",
			"primitives":[
				{
					"attributes":{
						"POSITION":0,
						"NORMAL":1,
						"TEXCOORD_0":2
					},
					"indices":3,
					"material":0
				},
				{
					"attributes":{
						"POSITION":4,
						"NORMAL":5,
						"TEXCOORD_0":6
					},
					"indices":7,
					"material":1
				}
			]
		},
		{
			"name":"Cube.003",
			"primitives":[
				{
					"attributes":{
						"POSITION":8,
						"NORMAL":9,
						"TEXCOORD_0":10
					},
					"indices":11,
					"material":2
				},
				{
					"attributes":{
						"POSITION":12,
						"NORMAL":13,
						"TEXCOORD_0":14
					},
					"indices":15,
					"material":0
				},
				{
					"attributes":{
						"POSITION":16,
						"NORMAL":17,
						"TEXCOORD_0":18
					},
					"indices":19,
					"material":3
				},
				{
					"attributes":{
						"POSITION":20,
						"NORMAL":21,
						"TEXCOORD_0":22
					},
					"indices":23,
					"material":4
				},
				{
					"attributes":{
						"POSITION":24,
						"NORMAL":25,
						"TEXCOORD_0":26
					},
					"indices":27,
					"material":5
				},
				{
					"attributes":{
						"POSITION":28,
						"NORMAL":29,
						"TEXCOORD_0":30
					},
					"indices":31,
					"material":6
				}
			]
		}
	],
	"textures":[
		{
			"sampler":0,
			"source":0
		},
		{
			"sampler":0,
			"source":0
		},
		{
			"sampler":0,
			"source":0
		},
		{
			"sampler":0,
			"source":0
		},
		{
			"sampler":0,
			"source":0
		},
		{
			"sampler":0,
			"source":0
		},
		{
			"sampler":0,
			"source":0
		}
	],
	"images":[
		{
			"mimeType":"image/png",
			"name":"prototypebits_texture",
			"uri":"prototypebits_texture.png"
		}
	],
	"accessors":[
		{
			"bufferView":0,
			"componentType":5126,
			"count":119,
			"max":[
				-0.33190077543258667,
				2.7724862098693848,
				0.693052351474762
			],
			"min":[
				-0.5405824780464172,
				0.4735540747642517,
				0.4520874619483948
			],
			"type":"VEC3"
		},
		{
			"bufferView":1,
			"componentType":5126,
			"count":119,
			"type":"VEC3"
		},
		{
			"bufferView":2,
			"componentType":5126,
			"count":119,
			"type":"VEC2"
		},
		{
			"bufferView":3,
			"componentType":5123,
			"count":336,
			"type":"SCALAR"
		},
		{
			"bufferView":4,
			"componentType":5126,
			"count":165,
			"max":[
				0.41999542713165283,
				2.912165403366089,
				0.8375992774963379
			],
			"min":[
				-0.4097735285758972,
				0.10626192390918732,
				0.42789438366889954
			],
			"type":"VEC3"
		},
		{
			"bufferView":5,
			"componentType":5126,
			"count":165,
			"type":"VEC3"
		},
		{
			"bufferView":6,
			"componentType":5126,
			"count":165,
			"type":"VEC2"
		},
		{
			"bufferView":7,
			"componentType":5123,
			"count":450,
			"type":"SCALAR"
		},
		{
			"bufferView":8,
			"componentType":5126,
			"count":348,
			"max":[
				0.4063197672367096,
				2.1311087608337402,
				0.3952427804470062
			],
			"min":[
				-0.3331417143344879,
				0.081064872443676,
				-0.09520833939313889
			],
			"type":"VEC3"
		},
		{
			"bufferView":9,
			"componentType":5126,
			"count":348,
			"type":"VEC3"
		},
		{
			"bufferView":10,
			"componentType":5126,
			"count":348,
			"type":"VEC2"
		},
		{
			"bufferView":11,
			"componentType":5123,
			"count":480,
			"type":"SCALAR"
		},
		{
			"bufferView":12,
			"componentType":5126,
			"count":149,
			"max":[
				0.5030084848403931,
				3.000000238418579,
				0.4949348270893097
			],
			"min":[
				-0.49699142575263977,
				1.7224536463800177e-07,
				-0.5050650835037231
			],
			"type":"VEC3"
		},
		{
			"bufferView":13,
			"componentType":5126,
			"count":149,
			"type":"VEC3"
		},
		{
			"bufferView":14,
			"componentType":5126,
			"count":149,
			"type":"VEC2"
		},
		{
			"bufferView":15,
			"componentType":5123,
			"count":336,
			"type":"SCALAR"
		},
		{
			"bufferView":16,
			"componentType":5126,
			"count":240,
			"max":[
				-0.016698017716407776,
				2.5593323707580566,
				0.24762067198753357
			],
			"min":[
				-0.28059354424476624,
				2.1350598335266113,
				-0.016274897381663322
			],
			"type":"VEC3"
		},
		{
			"bufferView":17,
			"componentType":5126,
			"count":240,
			"type":"VEC3"
		},
		{
			"bufferView":18,
			"componentType":5126,
			"count":240,
			"type":"VEC2"
		},
		{
			"bufferView":19,
			"componentType":5123,
			"count":624,
			"type":"SCALAR"
		},
		{
			"bufferView":20,
			"componentType":5126,
			"count":486,
			"max":[
				0.2937748432159424,
				2.2410099506378174,
				0.18684087693691254
			],
			"min":[
				-0.03496043011546135,
				2.106112003326416,
				-0.045271165668964386
			],
			"type":"VEC3"
		},
		{
			"bufferView":21,
			"componentType":5126,
			"count":486,
			"type":"VEC3"
		},
		{
			"bufferView":22,
			"componentType":5126,
			"count":486,
			"type":"VEC2"
		},
		{
			"bufferView":23,
			"componentType":5123,
			"count":1248,
			"type":"SCALAR"
		},
		{
			"bufferView":24,
			"componentType":5126,
			"count":204,
			"max":[
				0.36643388867378235,
				1.8491379022598267,
				0.5477880239486694
			],
			"min":[
				-0.36673811078071594,
				1.5180903673171997,
				-0.054563961923122406
			],
			"type":"VEC3"
		},
		{
			"bufferView":25,
			"componentType":5126,
			"count":204,
			"type":"VEC3"
		},
		{
			"bufferView":26,
			"componentType":5126,
			"count":204,
			"type":"VEC2"
		},
		{
			"bufferView":27,
			"componentType":5123,
			"count":294,
			"type":"SCALAR"
		},
		{
			"bufferView":28,
			"componentType":5126,
			"count":114,
			"max":[
				0.3757423162460327,
				1.087612509727478,
				0.4271892309188843
			],
			"min":[
				-0.19773836433887482,
				0.5787157416343689,
				-0.14858423173427582
			],
			"type":"VEC3"
		},
		{
			"bufferView":29,
			"componentType":5126,
			"count":114,
			"type":"VEC3"
		},
		{
			"bufferView":30,
			"componentType":5126,
			"count":114,
			"type":"VEC2"
		},
		{
			"bufferView":31,
			"componentType":5123,
			"count":168,
			"type":"SCALAR"
		}
	],
	"bufferViews":[
		{
			"buffer":0,
			"byteLength":1428,
			"byteOffset":0,
			"target":34962
		},
		{
			"buffer":0,
			"byteLength":1428,
			"byteOffset":1428,
			"target":34962
		},
		{
			"buffer":0,
			"byteLength":952,
			"byteOffset":2856,
			"target":34962
		},
		{
			"buffer":0,
			"byteLength":672,
			"byteOffset":3808,
			"target":34963
		},
		{
			"buffer":0,
			"byteLength":1980,
			"byteOffset":4480,
			"target":34962
		},
		{
			"buffer":0,
			"byteLength":1980,
			"byteOffset":6460,
			"target":34962
		},
		{
			"buffer":0,
			"byteLength":1320,
			"byteOffset":8440,
			"target":34962
		},
		{
			"buffer":0,
			"byteLength":900,
			"byteOffset":9760,
			"target":34963
		},
		{
			"buffer":0,
			"byteLength":4176,
			"byteOffset":10660,
			"target":34962
		},
		{
			"buffer":0,
			"byteLength":4176,
			"byteOffset":14836,
			"target":34962
		},
		{
			"buffer":0,
			"byteLength":2784,
			"byteOffset":19012,
			"target":34962
		},
		{
			"buffer":0,
			"byteLength":960,
			"byteOffset":21796,
			"target":34963
		},
		{
			"buffer":0,
			"byteLength":1788,
			"byteOffset":22756,
			"target":34962
		},
		{
			"buffer":0,
			"byteLength":1788,
			"byteOffset":24544,
			"target":34962
		},
		{
			"buffer":0,
			"byteLength":1192,
			"byteOffset":26332,
			"target":34962
		},
		{
			"buffer":0,
			"byteLength":672,
			"byteOffset":27524,
			"target":34963
		},
		{
			"buffer":0,
			"byteLength":2880,
			"byteOffset":28196,
			"target":34962
		},
		{
			"buffer":0,
			"byteLength":2880,
			"byteOffset":31076,
			"target":34962
		},
		{
			"buffer":0,
			"byteLength":1920,
			"byteOffset":33956,
			"target":34962
		},
		{
			"buffer":0,
			"byteLength":1248,
			"byteOffset":35876,
			"target":34963
		},
		{
			"buffer":0,
			"byteLength":5832,
			"byteOffset":37124,
			"target":34962
		},
		{
			"buffer":0,
			"byteLength":5832,
			"byteOffset":42956,
			"target":34962
		},
		{
			"buffer":0,
			"byteLength":3888,
			"byteOffset":48788,
			"target":34962
		},
		{
			"buffer":0,
			"byteLength":2496,
			"byteOffset":52676,
			"target":34963
		},
		{
			"buffer":0,
			"byteLength":2448,
			"byteOffset":55172,
			"target":34962
		},
		{
			"buffer":0,
			"byteLength":2448,
			"byteOffset":57620,
			"target":34962
		},
		{
			"buffer":0,
			"byteLength":1632,
			"byteOffset":60068,
			"target":34962
		},
		{
			"buffer":0,
			"byteLength":588,
			"byteOffset":61700,
			"target":34963
		},
		{
			"buffer":0,
			"byteLength":1368,
			"byteOffset":62288,
			"target":34962
		},
		{
			"buffer":0,
			"byteLength":1368,
			"byteOffset":63656,
			"target":34962
		},
		{
			"buffer":0,
			"byteLength":912,
			"byteOffset":65024,
			"target":34962
		},
		{
			"buffer":0,
			"byteLength":336,
			"byteOffset":65936,
			"target":34963
		}
	],
	"samplers":[
		{
			"magFilter":9729,
			"minFilter":9987
		}
	],
	"buffers":[
		{
			"byteLength":66272,
			"uri":"Locker_Decorated.bin"
		}
	]
}
