{
	"asset":{
		"generator":"Khronos glTF Blender I/O v4.1.62",
		"version":"2.0"
	},
	"scene":0,
	"scenes":[
		{
			"name":"Scene",
			"nodes":[
				1
			]
		}
	],
	"nodes":[
		{
			"mesh":0,
			"name":"Cube_Prototype_Large_B.001"
		},
		{
			"children":[
				0
			],
			"mesh":1,
			"name":"Cube_Prototype_Large_B"
		}
	],
	"materials":[
		{
			"name":"prototype_texture.034",
			"pbrMetallicRoughness":{
				"baseColorTexture":{
					"index":0
				},
				"metallicFactor":0,
				"roughnessFactor":0.4000000059604645
			}
		},
		{
			"name":"prototype_texture.036",
			"pbrMetallicRoughness":{
				"baseColorTexture":{
					"index":1
				},
				"metallicFactor":0,
				"roughnessFactor":0.4000000059604645
			}
		}
	],
	"meshes":[
		{
			"name":"Cube.001",
			"primitives":[
				{
					"attributes":{
						"POSITION":0,
						"NORMAL":1,
						"TEXCOORD_0":2
					},
					"indices":3,
					"material":0
				},
				{
					"attributes":{
						"POSITION":4,
						"NORMAL":5,
						"TEXCOORD_0":6
					},
					"indices":7,
					"material":1
				}
			]
		},
		{
			"name":"Cube.16101",
			"primitives":[
				{
					"attributes":{
						"POSITION":8,
						"NORMAL":9,
						"TEXCOORD_0":10
					},
					"indices":11,
					"material":0
				}
			]
		}
	],
	"textures":[
		{
			"sampler":0,
			"source":0
		},
		{
			"sampler":0,
			"source":0
		}
	],
	"images":[
		{
			"mimeType":"image/png",
			"name":"prototypebits_texture",
			"uri":"prototypebits_texture.png"
		}
	],
	"accessors":[
		{
			"bufferView":0,
			"componentType":5126,
			"count":119,
			"max":[
				-0.33190077543258667,
				2.772486448287964,
				0.7190762162208557
			],
			"min":[
				-0.5405824780464172,
				0.47355419397354126,
				0.47811129689216614
			],
			"type":"VEC3"
		},
		{
			"bufferView":1,
			"componentType":5126,
			"count":119,
			"type":"VEC3"
		},
		{
			"bufferView":2,
			"componentType":5126,
			"count":119,
			"type":"VEC2"
		},
		{
			"bufferView":3,
			"componentType":5123,
			"count":336,
			"type":"SCALAR"
		},
		{
			"bufferView":4,
			"componentType":5126,
			"count":165,
			"max":[
				0.41999542713165283,
				2.912165641784668,
				0.8636231422424316
			],
			"min":[
				-0.4097735285758972,
				0.10626204311847687,
				0.4539182186126709
			],
			"type":"VEC3"
		},
		{
			"bufferView":5,
			"componentType":5126,
			"count":165,
			"type":"VEC3"
		},
		{
			"bufferView":6,
			"componentType":5126,
			"count":165,
			"type":"VEC2"
		},
		{
			"bufferView":7,
			"componentType":5123,
			"count":450,
			"type":"SCALAR"
		},
		{
			"bufferView":8,
			"componentType":5126,
			"count":184,
			"max":[
				0.5,
				3.000000476837158,
				0.5
			],
			"min":[
				-0.5,
				1.4901161193847656e-07,
				-0.5
			],
			"type":"VEC3"
		},
		{
			"bufferView":9,
			"componentType":5126,
			"count":184,
			"type":"VEC3"
		},
		{
			"bufferView":10,
			"componentType":5126,
			"count":184,
			"type":"VEC2"
		},
		{
			"bufferView":11,
			"componentType":5123,
			"count":336,
			"type":"SCALAR"
		}
	],
	"bufferViews":[
		{
			"buffer":0,
			"byteLength":1428,
			"byteOffset":0,
			"target":34962
		},
		{
			"buffer":0,
			"byteLength":1428,
			"byteOffset":1428,
			"target":34962
		},
		{
			"buffer":0,
			"byteLength":952,
			"byteOffset":2856,
			"target":34962
		},
		{
			"buffer":0,
			"byteLength":672,
			"byteOffset":3808,
			"target":34963
		},
		{
			"buffer":0,
			"byteLength":1980,
			"byteOffset":4480,
			"target":34962
		},
		{
			"buffer":0,
			"byteLength":1980,
			"byteOffset":6460,
			"target":34962
		},
		{
			"buffer":0,
			"byteLength":1320,
			"byteOffset":8440,
			"target":34962
		},
		{
			"buffer":0,
			"byteLength":900,
			"byteOffset":9760,
			"target":34963
		},
		{
			"buffer":0,
			"byteLength":2208,
			"byteOffset":10660,
			"target":34962
		},
		{
			"buffer":0,
			"byteLength":2208,
			"byteOffset":12868,
			"target":34962
		},
		{
			"buffer":0,
			"byteLength":1472,
			"byteOffset":15076,
			"target":34962
		},
		{
			"buffer":0,
			"byteLength":672,
			"byteOffset":16548,
			"target":34963
		}
	],
	"samplers":[
		{
			"magFilter":9729,
			"minFilter":9987
		}
	],
	"buffers":[
		{
			"byteLength":17220,
			"uri":"Locker.bin"
		}
	]
}
