{
	"asset":{
		"generator":"Khronos glTF Blender I/O v4.1.62",
		"version":"2.0"
	},
	"scene":0,
	"scenes":[
		{
			"name":"Scene",
			"nodes":[
				0
			]
		}
	],
	"nodes":[
		{
			"mesh":0,
			"name":"Pallet_Small.001"
		}
	],
	"materials":[
		{
			"name":"prototype_texture.002",
			"pbrMetallicRoughness":{
				"baseColorTexture":{
					"index":0
				},
				"metallicFactor":0,
				"roughnessFactor":0.4000000059604645
			}
		}
	],
	"meshes":[
		{
			"name":"Cube.001",
			"primitives":[
				{
					"attributes":{
						"POSITION":0,
						"NORMAL":1,
						"TEXCOORD_0":2
					},
					"indices":3,
					"material":0
				}
			]
		}
	],
	"textures":[
		{
			"sampler":0,
			"source":0
		}
	],
	"images":[
		{
			"mimeType":"image/png",
			"name":"prototypebits_texture",
			"uri":"prototypebits_texture.png"
		}
	],
	"accessors":[
		{
			"bufferView":0,
			"componentType":5126,
			"count":298,
			"max":[
				0.7000752687454224,
				1.5077470541000366,
				0.5554808974266052
			],
			"min":[
				-0.7036037445068359,
				-0.006381243467330933,
				-0.25217676162719727
			],
			"type":"VEC3"
		},
		{
			"bufferView":1,
			"componentType":5126,
			"count":298,
			"type":"VEC3"
		},
		{
			"bufferView":2,
			"componentType":5126,
			"count":298,
			"type":"VEC2"
		},
		{
			"bufferView":3,
			"componentType":5123,
			"count":444,
			"type":"SCALAR"
		}
	],
	"bufferViews":[
		{
			"buffer":0,
			"byteLength":3576,
			"byteOffset":0,
			"target":34962
		},
		{
			"buffer":0,
			"byteLength":3576,
			"byteOffset":3576,
			"target":34962
		},
		{
			"buffer":0,
			"byteLength":2384,
			"byteOffset":7152,
			"target":34962
		},
		{
			"buffer":0,
			"byteLength":888,
			"byteOffset":9536,
			"target":34963
		}
	],
	"samplers":[
		{
			"magFilter":9729,
			"minFilter":9987
		}
	],
	"buffers":[
		{
			"byteLength":10424,
			"uri":"Weaponrack.bin"
		}
	]
}
