{
	"asset":{
		"generator":"Khronos glTF Blender I/O v4.1.62",
		"version":"2.0"
	},
	"scene":0,
	"scenes":[
		{
			"name":"Scene",
			"nodes":[
				0
			]
		}
	],
	"nodes":[
		{
			"mesh":0,
			"name":"Barrel_B",
			"rotation":[
				-0.06773140281438828,
				-0.02849876694381237,
				-0.00992821529507637,
				0.9972471594810486
			],
			"scale":[
				0.22608011960983276,
				0.7224099040031433,
				0.22608011960983276
			],
			"translation":[
				-0.43454787135124207,
				0.17795604467391968,
				0.10501835495233536
			]
		}
	],
	"materials":[
		{
			"name":"prototype_texture.085",
			"pbrMetallicRoughness":{
				"baseColorTexture":{
					"index":0
				},
				"metallicFactor":0,
				"roughnessFactor":0.4000000059604645
			}
		},
		{
			"doubleSided":true,
			"name":"Material.004",
			"pbrMetallicRoughness":{
				"baseColorTexture":{
					"index":1
				},
				"metallicFactor":0,
				"roughnessFactor":0.5
			}
		},
		{
			"name":"prototype_texture.002",
			"pbrMetallicRoughness":{
				"baseColorTexture":{
					"index":2
				},
				"metallicFactor":0,
				"roughnessFactor":0.4000000059604645
			}
		}
	],
	"meshes":[
		{
			"name":"Cylinder.260",
			"primitives":[
				{
					"attributes":{
						"POSITION":0,
						"NORMAL":1,
						"TEXCOORD_0":2
					},
					"indices":3,
					"material":0
				},
				{
					"attributes":{
						"POSITION":4,
						"NORMAL":5,
						"TEXCOORD_0":6
					},
					"indices":7,
					"material":1
				},
				{
					"attributes":{
						"POSITION":8,
						"NORMAL":9,
						"TEXCOORD_0":10
					},
					"indices":11,
					"material":2
				}
			]
		}
	],
	"textures":[
		{
			"sampler":0,
			"source":0
		},
		{
			"sampler":0,
			"source":1
		},
		{
			"sampler":0,
			"source":0
		}
	],
	"images":[
		{
			"mimeType":"image/png",
			"name":"prototypebits_texture",
			"uri":"prototypebits_texture.png"
		},
		{
			"mimeType":"image/png",
			"name":"prototypebits_texture - Copy",
			"uri":"prototypebits_texture%20-%20Copy.png"
		}
	],
	"accessors":[
		{
			"bufferView":0,
			"componentType":5126,
			"count":772,
			"max":[
				1.5099351406097412,
				1,
				0.5
			],
			"min":[
				-0.5,
				-0.028900146484375,
				-0.6275479793548584
			],
			"type":"VEC3"
		},
		{
			"bufferView":1,
			"componentType":5126,
			"count":772,
			"type":"VEC3"
		},
		{
			"bufferView":2,
			"componentType":5126,
			"count":772,
			"type":"VEC2"
		},
		{
			"bufferView":3,
			"componentType":5123,
			"count":2304,
			"type":"SCALAR"
		},
		{
			"bufferView":4,
			"componentType":5126,
			"count":2626,
			"max":[
				4.744974136352539,
				1.546497106552124,
				0.7274853587150574
			],
			"min":[
				1.6518197059631348,
				0.03977655619382858,
				-0.8859953880310059
			],
			"type":"VEC3"
		},
		{
			"bufferView":5,
			"componentType":5126,
			"count":2626,
			"type":"VEC3"
		},
		{
			"bufferView":6,
			"componentType":5126,
			"count":2626,
			"type":"VEC2"
		},
		{
			"bufferView":7,
			"componentType":5123,
			"count":7776,
			"type":"SCALAR"
		},
		{
			"bufferView":8,
			"componentType":5126,
			"count":298,
			"max":[
				5.133546829223633,
				1.9236681461334229,
				1.9562592506408691
			],
			"min":[
				-1.368409514427185,
				-0.3448481261730194,
				-1.935844898223877
			],
			"type":"VEC3"
		},
		{
			"bufferView":9,
			"componentType":5126,
			"count":298,
			"type":"VEC3"
		},
		{
			"bufferView":10,
			"componentType":5126,
			"count":298,
			"type":"VEC2"
		},
		{
			"bufferView":11,
			"componentType":5123,
			"count":444,
			"type":"SCALAR"
		}
	],
	"bufferViews":[
		{
			"buffer":0,
			"byteLength":9264,
			"byteOffset":0,
			"target":34962
		},
		{
			"buffer":0,
			"byteLength":9264,
			"byteOffset":9264,
			"target":34962
		},
		{
			"buffer":0,
			"byteLength":6176,
			"byteOffset":18528,
			"target":34962
		},
		{
			"buffer":0,
			"byteLength":4608,
			"byteOffset":24704,
			"target":34963
		},
		{
			"buffer":0,
			"byteLength":31512,
			"byteOffset":29312,
			"target":34962
		},
		{
			"buffer":0,
			"byteLength":31512,
			"byteOffset":60824,
			"target":34962
		},
		{
			"buffer":0,
			"byteLength":21008,
			"byteOffset":92336,
			"target":34962
		},
		{
			"buffer":0,
			"byteLength":15552,
			"byteOffset":113344,
			"target":34963
		},
		{
			"buffer":0,
			"byteLength":3576,
			"byteOffset":128896,
			"target":34962
		},
		{
			"buffer":0,
			"byteLength":3576,
			"byteOffset":132472,
			"target":34962
		},
		{
			"buffer":0,
			"byteLength":2384,
			"byteOffset":136048,
			"target":34962
		},
		{
			"buffer":0,
			"byteLength":888,
			"byteOffset":138432,
			"target":34963
		}
	],
	"samplers":[
		{
			"magFilter":9729,
			"minFilter":9987
		}
	],
	"buffers":[
		{
			"byteLength":139320,
			"uri":"Weaponrack_Decorated.bin"
		}
	]
}
