{
	"asset":{
		"generator":"Khronos glTF Blender I/O v4.1.62",
		"version":"2.0"
	},
	"scene":0,
	"scenes":[
		{
			"name":"Scene",
			"nodes":[
				0
			]
		}
	],
	"nodes":[
		{
			"mesh":0,
			"name":"Dummy_Base.001",
			"scale":[
				0.5076789855957031,
				0.5076789855957031,
				0.5076789855957031
			],
			"translation":[
				0.8081399202346802,
				0.9882652759552002,
				0
			]
		}
	],
	"materials":[
		{
			"name":"prototype_texture.001",
			"pbrMetallicRoughness":{
				"baseColorTexture":{
					"index":0
				},
				"metallicFactor":0,
				"roughnessFactor":0.4000000059604645
			}
		}
	],
	"meshes":[
		{
			"name":"Cube.002",
			"primitives":[
				{
					"attributes":{
						"POSITION":0,
						"NORMAL":1,
						"TEXCOORD_0":2
					},
					"indices":3,
					"material":0
				}
			]
		}
	],
	"textures":[
		{
			"sampler":0,
			"source":0
		}
	],
	"images":[
		{
			"mimeType":"image/png",
			"name":"prototypebits_texture",
			"uri":"prototypebits_texture.png"
		}
	],
	"accessors":[
		{
			"bufferView":0,
			"componentType":5126,
			"count":236,
			"max":[
				1.37175452709198,
				0.020183205604553223,
				1.4773114919662476
			],
			"min":[
				-4.555419445037842,
				-1.9466341733932495,
				-1.4773114919662476
			],
			"type":"VEC3"
		},
		{
			"bufferView":1,
			"componentType":5126,
			"count":236,
			"type":"VEC3"
		},
		{
			"bufferView":2,
			"componentType":5126,
			"count":236,
			"type":"VEC2"
		},
		{
			"bufferView":3,
			"componentType":5123,
			"count":456,
			"type":"SCALAR"
		}
	],
	"bufferViews":[
		{
			"buffer":0,
			"byteLength":2832,
			"byteOffset":0,
			"target":34962
		},
		{
			"buffer":0,
			"byteLength":2832,
			"byteOffset":2832,
			"target":34962
		},
		{
			"buffer":0,
			"byteLength":1888,
			"byteOffset":5664,
			"target":34962
		},
		{
			"buffer":0,
			"byteLength":912,
			"byteOffset":7552,
			"target":34963
		}
	],
	"samplers":[
		{
			"magFilter":9729,
			"minFilter":9987
		}
	],
	"buffers":[
		{
			"byteLength":8464,
			"uri":"Workbench.bin"
		}
	]
}
