{
	"asset":{
		"generator":"Khronos glTF Blender I/O v4.1.62",
		"version":"2.0"
	},
	"scene":0,
	"scenes":[
		{
			"name":"Scene",
			"nodes":[
				0
			]
		}
	],
	"nodes":[
		{
			"mesh":0,
			"name":"Dummy_Base",
			"scale":[
				0.5076789855957031,
				0.5076789855957031,
				0.5076789855957031
			],
			"translation":[
				0.8081399202346802,
				0.9882652759552002,
				0
			]
		}
	],
	"materials":[
		{
			"name":"prototype_texture.039",
			"pbrMetallicRoughness":{
				"baseColorTexture":{
					"index":0
				},
				"metallicFactor":0,
				"roughnessFactor":0.4000000059604645
			}
		},
		{
			"name":"prototype_texture.001",
			"pbrMetallicRoughness":{
				"baseColorTexture":{
					"index":1
				},
				"metallicFactor":0,
				"roughnessFactor":0.4000000059604645
			}
		}
	],
	"meshes":[
		{
			"name":"Cube.16121",
			"primitives":[
				{
					"attributes":{
						"POSITION":0,
						"NORMAL":1,
						"TEXCOORD_0":2
					},
					"indices":3,
					"material":0
				},
				{
					"attributes":{
						"POSITION":4,
						"NORMAL":5,
						"TEXCOORD_0":6
					},
					"indices":7,
					"material":1
				}
			]
		}
	],
	"textures":[
		{
			"sampler":0,
			"source":0
		},
		{
			"sampler":0,
			"source":0
		}
	],
	"images":[
		{
			"mimeType":"image/png",
			"name":"prototypebits_texture",
			"uri":"prototypebits_texture.png"
		}
	],
	"accessors":[
		{
			"bufferView":0,
			"componentType":5126,
			"count":2713,
			"max":[
				0.9354508519172668,
				2.197127103805542,
				0.5434228777885437
			],
			"min":[
				-0.9712655544281006,
				0,
				-0.4500238597393036
			],
			"type":"VEC3"
		},
		{
			"bufferView":1,
			"componentType":5126,
			"count":2713,
			"type":"VEC3"
		},
		{
			"bufferView":2,
			"componentType":5126,
			"count":2713,
			"type":"VEC2"
		},
		{
			"bufferView":3,
			"componentType":5123,
			"count":7362,
			"type":"SCALAR"
		},
		{
			"bufferView":4,
			"componentType":5126,
			"count":1170,
			"max":[
				1.37175452709198,
				1.8104788064956665,
				1.4773114919662476
			],
			"min":[
				-4.555419445037842,
				-1.9466341733932495,
				-1.4773114919662476
			],
			"type":"VEC3"
		},
		{
			"bufferView":5,
			"componentType":5126,
			"count":1170,
			"type":"VEC3"
		},
		{
			"bufferView":6,
			"componentType":5126,
			"count":1170,
			"type":"VEC2"
		},
		{
			"bufferView":7,
			"componentType":5123,
			"count":2406,
			"type":"SCALAR"
		}
	],
	"bufferViews":[
		{
			"buffer":0,
			"byteLength":32556,
			"byteOffset":0,
			"target":34962
		},
		{
			"buffer":0,
			"byteLength":32556,
			"byteOffset":32556,
			"target":34962
		},
		{
			"buffer":0,
			"byteLength":21704,
			"byteOffset":65112,
			"target":34962
		},
		{
			"buffer":0,
			"byteLength":14724,
			"byteOffset":86816,
			"target":34963
		},
		{
			"buffer":0,
			"byteLength":14040,
			"byteOffset":101540,
			"target":34962
		},
		{
			"buffer":0,
			"byteLength":14040,
			"byteOffset":115580,
			"target":34962
		},
		{
			"buffer":0,
			"byteLength":9360,
			"byteOffset":129620,
			"target":34962
		},
		{
			"buffer":0,
			"byteLength":4812,
			"byteOffset":138980,
			"target":34963
		}
	],
	"samplers":[
		{
			"magFilter":9729,
			"minFilter":9987
		}
	],
	"buffers":[
		{
			"byteLength":143792,
			"uri":"Workbench_Decorated.bin"
		}
	]
}
